<?xml version="1.0" encoding="UTF-8" standalone="no"?>
<svg width="129px" height="30px" viewBox="0 0 129 30" version="1.1" xmlns="http://www.w3.org/2000/svg" xmlns:xlink="http://www.w3.org/1999/xlink">
    <!-- Generator: Sketch 42 (36781) - http://www.bohemiancoding.com/sketch -->
    <title>Page 1</title>
    <desc>Created with Sketch.</desc>
    <defs>
        <polygon id="path-1" points="0.00327892977 4.28350913 1.20828562 4.28350913 1.20828562 0.400550939 0.00327892977 0.400550939 0.00327892977 4.28350913"></polygon>
        <polygon id="path-3" points="0.0263177258 4.28350913 1.29690301 4.28350913 1.29690301 0.400593774 0.0263177258 0.400593774"></polygon>
        <polygon id="path-5" points="0.167182274 4.28350913 1.37218896 4.28350913 1.37218896 0.400550939 0.167182274 0.400550939 0.167182274 4.28350913"></polygon>
        <polygon id="path-7" points="0 29.1945135 123.452091 29.1945135 128.79593 29.1945135 128.79593 -0.000171340365 0 -0.000171340365"></polygon>
    </defs>
    <g id="Symbols" stroke="none" stroke-width="1" fill="none" fill-rule="evenodd">
        <g id="header-mobile" transform="translate(-2.000000, -9.000000)">
            <g id="Group-2">
                <g id="Page-1" transform="translate(2.000000, 9.000000)">
                    <path d="M33.0123943,17.4799299 C35.0004612,17.4799299 34.9728492,14.2176093 32.9847823,14.2176093 L29.0634411,14.2176093 L29.0634411,17.4799299 L33.0123943,17.4799299 Z M29.0634411,7.38412722 L29.0634411,9.78374904 L31.480789,9.78374904 C32.9994512,9.78374904 32.9994512,7.38412722 31.4592171,7.38412722 L29.0634411,7.38412722 Z M37.0437522,11.8599659 C38.6176385,12.6549852 39.3631635,14.080537 39.3631635,15.7802335 C39.3355515,19.1247974 37.2922605,21.8388288 33.3437388,21.8388288 L16.6613207,21.8388288 L24.2869896,11.8325515 L24.2869896,11.7730107 L31.2952706,2.64870787 L32.5429896,2.64870787 C35.8840465,2.64870787 38.5624144,5.22566697 38.5624144,8.54281644 C38.5624144,9.69422369 37.9825615,11.0923611 37.0437522,11.8599659 Z" id="Fill-1" fill="#FEFEFE"></path>
                    <g id="Group-5" transform="translate(40.986622, 24.911004)">
                        <mask id="mask-2" fill="white">
                            <use xlink:href="#path-1"></use>
                        </mask>
                        <g id="Clip-4"></g>
                        <path d="M1.20828562,3.79951544 C1.20828562,4.06038114 1.00033244,4.27241484 0.737155184,4.28355197 L0.496412709,4.28355197 C0.222449498,4.28355197 0.00327892977,4.0659497 0.00327892977,3.79951544 L0.00327892977,0.884587471 C0.00327892977,0.618153203 0.222449498,0.400550939 0.496412709,0.400550939 L0.737155184,0.400550939 C1.00033244,0.406119501 1.20828562,0.623721765 1.20828562,0.884587471 L1.20828562,1.46671636 C1.20828562,1.59179483 1.15349298,1.65133561 1.10430903,1.6731815 L0.819559866,1.80382853 L0.819559866,0.950125161 C0.819559866,0.835755467 0.726369231,0.74323167 0.605997993,0.74323167 C0.490804013,0.74323167 0.397613378,0.835755467 0.397613378,0.950125161 L0.397613378,3.72883754 C0.397613378,3.84834744 0.490804013,3.94087124 0.605997993,3.94087124 C0.726369231,3.94087124 0.819559866,3.84834744 0.819559866,3.72883754 L0.819559866,3.2178149 C0.819559866,3.09273643 0.874352508,3.0327673 0.923536455,3.00535284 C0.956325753,2.98907551 1.10948629,2.92396617 1.20828562,2.88027438 L1.20828562,3.79951544 Z" id="Fill-3" fill="#FEFEFE" mask="url(#mask-2)"></path>
                    </g>
                    <g id="Group-8" transform="translate(45.301003, 24.911004)">
                        <mask id="mask-4" fill="white">
                            <use xlink:href="#path-3"></use>
                        </mask>
                        <g id="Clip-7"></g>
                        <path d="M0.689006689,3.94091407 C0.804200669,3.94091407 0.896959866,3.84839028 0.896959866,3.72888037 L0.896959866,0.955308207 C0.896959866,0.835798302 0.804200669,0.743274505 0.689006689,0.743274505 L0.628605351,0.743274505 C0.513842809,0.748843067 0.420652174,0.841366864 0.420652174,0.955308207 L0.420652174,3.72888037 C0.420652174,3.84282171 0.513842809,3.93534551 0.628605351,3.94091407 L0.689006689,3.94091407 Z M0.820595318,0.400593774 C1.08334114,0.411730898 1.29690301,0.6237646 1.29690301,0.884630306 L1.29690301,3.80512683 C1.29129431,4.06599254 1.08334114,4.27245768 0.820595318,4.2835948 L0.519020067,4.2835948 C0.250665552,4.2835948 0.0319264214,4.06599254 0.0263177258,3.80512683 L0.0263177258,0.884630306 C0.0263177258,0.618196038 0.245488294,0.400593774 0.519020067,0.400593774 L0.820595318,0.400593774 Z" id="Fill-6" fill="#FEFEFE" mask="url(#mask-4)"></path>
                    </g>
                    <path d="M50.973897,29.1564331 L50.7931244,29.1564331 C50.5795625,29.1564331 50.5467732,28.9876629 50.5303786,28.9118447 L50.1084321,27.0300992 L50.1084321,29.1564331 L49.7140977,29.1564331 L49.7140977,25.3496785 L49.8948702,25.3496785 C50.1140408,25.3496785 50.1524388,25.4529111 50.1740107,25.5617122 L50.5795625,27.5411218 L50.5795625,25.3496785 L50.973897,25.3496785 L50.973897,29.1564331 Z" id="Fill-9" fill="#FEFEFE"></path>
                    <path d="M54.8785415,29.1564331 L54.7085548,29.1564331 L54.6813742,29.1564331 C54.484207,29.1564331 54.4514177,28.9225535 54.445809,28.8899988 L53.898314,25.3496785 L54.1994579,25.3496785 C54.2266385,25.3496785 54.2926485,25.3715244 54.3142204,25.4966029 L54.6813742,27.8838025 L55.0701,25.3496785 L55.4644344,25.3496785 L54.8785415,29.1564331 Z" id="Fill-11" fill="#FEFEFE"></path>
                    <path d="M59.791198,28.7703604 C59.7471913,28.8684528 59.6816127,29.0205174 59.6652181,29.053072 C59.6380375,29.101904 59.5776361,29.1563046 59.4516562,29.1563046 L58.5754054,29.1563046 L58.5754054,25.4587795 C58.5805826,25.3988104 58.630198,25.3499784 58.6957766,25.3499784 L59.7200107,25.3499784 L59.5884221,25.63269 C59.5664187,25.681522 59.5064488,25.7414911 59.3804689,25.7414911 L59.0629304,25.7414911 C59.0081378,25.7414911 58.9697398,25.7796144 58.9697398,25.8340149 L58.9697398,26.9648613 L59.5612415,26.9648613 C59.5172348,27.0629537 59.4516562,27.2205868 59.4352615,27.2531415 C59.4076495,27.3019735 59.3528569,27.3563741 59.2268769,27.3563741 L59.0629304,27.3563741 C59.0133151,27.3563741 58.9697398,27.4000659 58.9697398,27.4488979 L58.9697398,28.7703604 L59.791198,28.7703604 Z" id="Fill-13" fill="#FEFEFE"></path>
                    <path d="M63.3945692,27.1498233 C63.4985458,27.1498233 63.5973452,27.1061315 63.5973452,26.932221 L63.5973452,25.9097474 C63.5973452,25.7683916 63.4985458,25.713991 63.3945692,25.713991 L63.1866161,25.713991 L63.1866161,27.1498233 L63.3945692,27.1498233 Z M63.5973452,29.1566473 L63.5973452,27.7645068 C63.5973452,27.5794592 63.4985458,27.5194901 63.3945692,27.5194901 L63.1866161,27.5194901 L63.1866161,29.1566473 L62.7922816,29.1566473 L62.7922816,25.3498927 L63.5097632,25.3498927 C63.772509,25.3498927 63.9916796,25.5619264 63.9916796,25.8283607 L63.9916796,27.0028989 C63.9916796,27.0028989 64.0080742,27.3018878 63.849305,27.3400111 C64.0024656,27.4162575 63.9916796,27.6989691 63.9916796,27.6989691 L63.9916796,29.1566473 L63.5973452,29.1566473 Z" id="Fill-15" fill="#FEFEFE"></path>
                    <path d="M67.9893421,26.3069143 L67.9893421,25.8665696 C67.9893421,25.7466313 67.8961515,25.6545359 67.781389,25.6545359 C67.666195,25.6545359 67.5730043,25.7466313 67.5730043,25.8665696 L67.5730043,26.2306679 C67.5730043,26.4538387 67.742991,26.7421189 67.742991,26.7421189 L68.2141214,27.6228083 C68.4056799,27.9710576 68.3892853,28.2263548 68.3892853,28.2263548 L68.3892853,28.7103913 C68.3892853,28.9768256 68.1701147,29.1944278 67.8961515,29.1944278 L67.6498003,29.1944278 C67.3870545,29.1837191 67.1786699,28.9716854 67.1730612,28.7103913 L67.1730612,28.3188786 C67.1730612,28.1938001 67.2334625,28.1342593 67.2826465,28.1068449 C67.3154358,28.0961361 67.4746365,28.0254582 67.5730043,27.9817664 L67.5730043,28.645282 C67.5730043,28.7596517 67.666195,28.8517471 67.781389,28.8517471 C67.8961515,28.8517471 67.9893421,28.7596517 67.9893421,28.6397134 L67.9893421,28.2049372 C67.9893421,27.9817664 67.8193555,27.688346 67.8193555,27.688346 L67.3486565,26.8127968 C67.1566666,26.4645475 67.1730612,26.208822 67.1730612,26.208822 L67.1730612,25.8173092 C67.1730612,25.550875 67.3922318,25.3118552 67.666195,25.3118552 L67.9125462,25.3118552 C68.1757234,25.3169954 68.3892853,25.5564435 68.3892853,25.8173092 L68.3892853,25.9642336 C68.3892853,26.0893121 68.3288839,26.1492812 68.2797,26.1762673 C68.2469107,26.1925446 68.0933187,26.2632225 67.9893421,26.3069143" id="Fill-17" fill="#FEFEFE"></path>
                    <path d="M71.9270779,25.349807 C72.0422719,25.349807 72.0858472,25.4367623 72.0858472,25.5018716 L72.0858472,29.1565616 L71.8067067,29.1565616 C71.7135161,29.1565616 71.6971214,29.102161 71.6915127,29.0747466 L71.6915127,25.349807 L71.9270779,25.349807 Z" id="Fill-19" fill="#FEFEFE"></path>
                    <path d="M76.0838548,25.181251 C76.1002495,25.181251 76.2262294,25.1868195 76.2754134,25.0561725 L76.3906074,24.7623238 C76.407002,24.7190603 76.3522094,24.7246289 76.3522094,24.7246289 L76.0566742,24.7246289 L75.8426809,25.181251 L76.0838548,25.181251 Z M76.0234535,28.8517899 C76.1386475,28.8517899 76.2318381,28.7596945 76.2318381,28.6397562 L76.2318381,25.8666124 C76.2318381,25.7466742 76.1386475,25.6541504 76.0234535,25.6541504 L75.9634836,25.6541504 C75.8482896,25.6597189 75.755099,25.7522427 75.755099,25.8666124 L75.755099,28.6397562 C75.755099,28.7541259 75.8482896,28.8466497 75.9634836,28.8517899 L76.0234535,28.8517899 Z M76.1550421,25.311898 C76.417788,25.3226068 76.6317813,25.5346405 76.6317813,25.7959345 L76.6317813,28.7160027 C76.6261726,28.9768684 76.417788,29.1837619 76.1550421,29.1944707 L75.8538983,29.1944707 C75.5855438,29.1944707 75.3663732,28.9768684 75.3607645,28.7160027 L75.3607645,25.7959345 C75.3607645,25.5290719 75.5799351,25.311898 75.8538983,25.311898 L76.1550421,25.311898 Z" id="Fill-21" fill="#FEFEFE"></path>
                    <path d="M81.007513,29.1564331 L80.8267405,29.1564331 C80.6131786,29.1564331 80.5803893,28.9876629 80.5639946,28.9118447 L80.1420482,27.0300992 L80.1420482,29.1564331 L79.7477137,29.1564331 L79.7477137,25.3496785 L79.9284863,25.3496785 C80.1476569,25.3496785 80.1860548,25.4529111 80.2076268,25.5617122 L80.6131786,27.5411218 L80.6131786,25.3496785 L81.007513,25.3496785 L81.007513,29.1564331 Z" id="Fill-23" fill="#FEFEFE"></path>
                    <path d="M89.2932823,29.1564331 L89.1232957,29.1564331 L89.0961151,29.1564331 C88.8989478,29.1564331 88.8661585,28.9225535 88.8605498,28.8899988 L88.3130548,25.3496785 L88.6141987,25.3496785 C88.6413793,25.3496785 88.7073893,25.3715244 88.7289612,25.4966029 L89.0961151,27.8838025 L89.4848408,25.3496785 L89.8791753,25.3496785 L89.2932823,29.1564331 Z" id="Fill-25" fill="#FEFEFE"></path>
                    <path d="M94.2059388,28.7703604 C94.1619321,28.8684528 94.0963535,29.0205174 94.0799589,29.053072 C94.0527783,29.101904 93.9923769,29.1563046 93.866397,29.1563046 L92.9901462,29.1563046 L92.9901462,25.4587795 C92.9953234,25.3988104 93.0449388,25.3499784 93.1105174,25.3499784 L94.1347515,25.3499784 L94.0031629,25.63269 C93.9811595,25.681522 93.9211896,25.7414911 93.7952097,25.7414911 L93.4776712,25.7414911 C93.4228786,25.7414911 93.3844806,25.7796144 93.3844806,25.8340149 L93.3844806,26.9648613 L93.9759823,26.9648613 C93.9319756,27.0629537 93.866397,27.2205868 93.8500023,27.2531415 C93.8223903,27.3019735 93.7675977,27.3563741 93.6416177,27.3563741 L93.4776712,27.3563741 C93.4280559,27.3563741 93.3844806,27.4000659 93.3844806,27.4488979 L93.3844806,28.7703604 L94.2059388,28.7703604 Z" id="Fill-27" fill="#FEFEFE"></path>
                    <path d="M98.3134886,25.349807 C98.4338599,25.349807 98.4722579,25.4367623 98.4722579,25.5018716 L98.4722579,29.1565616 L98.0779234,29.1565616 L98.0779234,27.4979869 C98.0723147,27.4487265 98.0343482,27.4110316 97.9847328,27.4110316 L97.557609,27.4110316 L97.557609,29.1565616 L97.1632746,29.1565616 L97.1632746,25.5018716 C97.1632746,25.4367623 97.2016726,25.349807 97.3220438,25.349807 L97.557609,25.349807 L97.557609,26.8888719 C97.557609,26.997673 97.6016157,27.0246591 97.6943749,27.0246591 L98.0779234,27.0246591 L98.0779234,25.349807 L98.3134886,25.349807 Z" id="Fill-29" fill="#FEFEFE"></path>
                    <path d="M101.960478,25.349807 C102.075672,25.349807 102.119247,25.4367623 102.119247,25.5018716 L102.119247,29.1565616 L101.840107,29.1565616 C101.746916,29.1565616 101.730522,29.102161 101.724913,29.0747466 L101.724913,25.349807 L101.960478,25.349807 Z" id="Fill-31" fill="#FEFEFE"></path>
                    <g id="Group-35" transform="translate(105.270903, 24.911004)">
                        <mask id="mask-6" fill="white">
                            <use xlink:href="#path-5"></use>
                        </mask>
                        <g id="Clip-34"></g>
                        <path d="M1.37218896,3.79951544 C1.37218896,4.06038114 1.16423579,4.27241484 0.901058528,4.28355197 L0.660316054,4.28355197 C0.386352843,4.28355197 0.167182274,4.0659497 0.167182274,3.79951544 L0.167182274,0.884587471 C0.167182274,0.618153203 0.386352843,0.400550939 0.660316054,0.400550939 L0.901058528,0.400550939 C1.16423579,0.406119501 1.37218896,0.623721765 1.37218896,0.884587471 L1.37218896,1.46671636 C1.37218896,1.59179483 1.31739632,1.65133561 1.26821237,1.6731815 L0.983463211,1.80382853 L0.983463211,0.950125161 C0.983463211,0.835755467 0.890272575,0.74323167 0.769901338,0.74323167 C0.654707358,0.74323167 0.561516722,0.835755467 0.561516722,0.950125161 L0.561516722,3.72883754 C0.561516722,3.84834744 0.654707358,3.94087124 0.769901338,3.94087124 C0.890272575,3.94087124 0.983463211,3.84834744 0.983463211,3.72883754 L0.983463211,3.2178149 C0.983463211,3.09273643 1.03825585,3.0327673 1.0874398,3.00535284 C1.1202291,2.98907551 1.27338963,2.92396617 1.37218896,2.88027438 L1.37218896,3.79951544 Z" id="Fill-33" fill="#FEFEFE" mask="url(#mask-6)"></path>
                    </g>
                    <path d="M111.04087,28.7105198 C111.04087,28.9713855 110.827308,29.1671419 110.56974,29.1727104 L110.56974,29.178279 L110.268596,29.178279 C110.000241,29.178279 109.781071,28.9769541 109.781071,28.7105198 L109.781071,25.4584797 C109.78668,25.3989389 109.835864,25.3496785 109.896265,25.3496785 L110.175405,25.3496785 L110.175405,28.6398419 C110.175405,28.7542116 110.262987,28.846307 110.378181,28.846307 L110.438583,28.846307 C110.553345,28.846307 110.646536,28.7542116 110.646536,28.6398419 L110.646536,25.3496785 L111.04087,25.3496785 L111.04087,28.7105198 Z" id="Fill-36" fill="#FEFEFE"></path>
                    <path d="M115.586589,28.7703604 C115.542582,28.8684528 115.477003,29.0205174 115.460609,29.053072 C115.433428,29.101904 115.373027,29.1563046 115.247047,29.1563046 L114.304786,29.1563046 L114.304786,25.3499784 L114.578749,25.3499784 C114.644328,25.3551186 114.69912,25.404379 114.69912,25.4694883 L114.69912,28.7703604 L115.586589,28.7703604 Z" id="Fill-38" fill="#FEFEFE"></path>
                    <path d="M119.567684,29.1564331 L119.134952,29.1564331 L118.789801,26.5353539 L118.444651,29.1564331 L118.012349,29.1564331 L118.592634,25.3496785 L118.806196,25.3496785 C118.970574,25.3496785 118.998186,25.4529111 119.01458,25.556572 L119.567684,29.1564331 Z" id="Fill-40" fill="#FEFEFE"></path>
                    <path d="M123.056249,27.1498233 C123.160226,27.1498233 123.259025,27.1061315 123.259025,26.932221 L123.259025,25.9097474 C123.259025,25.7683916 123.160226,25.713991 123.056249,25.713991 L122.848296,25.713991 L122.848296,27.1498233 L123.056249,27.1498233 Z M123.259025,29.1566473 L123.259025,27.7645068 C123.259025,27.5794592 123.160226,27.5194901 123.056249,27.5194901 L122.848296,27.5194901 L122.848296,29.1566473 L122.453962,29.1566473 L122.453962,25.3498927 L123.171443,25.3498927 C123.434189,25.3498927 123.65336,25.5619264 123.65336,25.8283607 L123.65336,27.0028989 C123.65336,27.0028989 123.669755,27.3018878 123.510985,27.3400111 C123.664146,27.4162575 123.65336,27.6989691 123.65336,27.6989691 L123.65336,29.1566473 L123.259025,29.1566473 Z" id="Fill-42" fill="#FEFEFE"></path>
                    <path d="M54.7103237,12.2710543 C54.7103237,5.36261075 45.0184977,5.36261075 45.0184977,12.2710543 C45.0184977,19.2343267 54.7103237,19.2343267 54.7103237,12.2710543 M39.9378823,12.2710543 C39.9378823,-0.997543607 59.7633271,-0.997543607 59.7633271,12.2710543 C59.7633271,25.5670666 39.9378823,25.5670666 39.9378823,12.2710543" id="Fill-44" fill="#FEFEFE"></path>
                    <path d="M69.8284334,7.03489272 C68.6687278,7.00747826 67.453798,7.03489272 66.2940923,7.03489272 L66.2940923,11.8324229 L69.8284334,11.8324229 C72.5068013,11.8324229 72.6448615,7.06230718 69.8284334,7.03489272 L69.8284334,7.03489272 Z M77.6978649,21.1259244 L77.6978649,21.8387003 L72.1754569,21.8387003 L68.862012,16.1913218 L66.2940923,16.1913218 L66.2940923,21.8387003 L61.3515371,21.8387003 L61.3515371,2.64857937 L69.8284334,2.64857937 C77.4217445,2.67599383 78.8023465,11.7501796 73.9150154,15.0399146 L77.6978649,21.1259244 Z" id="Fill-46" fill="#FEFEFE"></path>
                    <polygon id="Fill-48" fill="#FEFEFE" points="90.4864244 7.03489272 83.334906 7.03489272 83.334906 9.74892411 89.9065716 9.74892411 89.9065716 14.107823 83.334906 14.107823 83.334906 17.4798014 90.7349328 17.4798014 90.7349328 21.8387003 78.4199629 21.8387003 78.4199629 2.64857937 90.4864244 2.64857937"></polygon>
                    <path d="M101.204167,10.1875983 L99.0228161,15.2318586 L103.440742,15.2318586 L101.204167,10.1875983 Z M105.042241,19.4262708 L97.4213177,19.4262708 L96.2892241,21.8387431 L91.4571171,21.8387431 L91.4571171,21.1259672 L100.15491,2.40189208 L102.281037,2.40189208 L111.006441,21.1259672 L111.006441,21.8387431 L106.174334,21.8387431 L105.042241,19.4262708 Z" id="Fill-50" fill="#FEFEFE"></path>
                    <polygon id="Fill-52" fill="#FEFEFE" points="116.698577 17.425101 123.712035 17.425101 123.712035 21.8388288 111.72841 21.8388288 111.72841 2.64870787 116.698577 2.64870787"></polygon>
                    <mask id="mask-8" fill="white">
                        <use xlink:href="#path-7"></use>
                    </mask>
                    <g id="Clip-55"></g>
                    <polygon id="Fill-54" fill="#FEFEFE" mask="url(#mask-8)" points="124.405615 21.8388716 128.79593 21.8388716 128.79593 17.4799727 124.405615 17.4799727"></polygon>
                    <path d="M12.7884301,24.3868314 L12.7905873,24.3881164 L30.5757612,1.23189439 C30.8277211,1.03870813 30.9161659,0.690030486 30.7690455,0.39618176 C30.6322796,0.123322228 30.3354502,-0.0146067661 30.0476809,0.0329401852 L30.0476809,0.0295133779 L0.566650836,-4.28350913e-05 L0.567945151,0.00466902495 C0.50366087,0.0158061487 0.439808027,0.0325118343 0.378543813,0.0629247492 C0.0411591973,0.229124904 -0.0960381271,0.635201569 0.0713598662,0.969743633 C0.135644147,1.09867726 0.236169231,1.19719797 0.353951839,1.26102225 L0.353088963,1.26230731 L13.4839084,8.92293504 L11.6464134,23.7785731 L11.6464134,23.7785731 C11.6188013,23.9190722 11.6330388,24.0694233 11.7025003,24.2077807 C11.8698983,24.5423227 12.2789017,24.6785383 12.6162863,24.5123382 C12.6822963,24.4797835 12.7383833,24.4356634 12.7884301,24.3868314" id="Fill-56" fill="#FEFEFE" mask="url(#mask-8)"></path>
                </g>
            </g>
        </g>
    </g>
</svg>